<svg id="svg" version="1.1" xmlns="http://www.w3.org/2000/svg" xmlns:xlink="http://www.w3.org/1999/xlink" width="400" height="109.56848030018762" viewBox="0, 0, 400,109.56848030018762"><g id="svgg"><path id="path0" d="M7.020 10.559 C 6.882 10.725,6.844 22.524,6.875 55.267 L 6.917 99.750 200.990 99.792 C 356.139 99.825,395.090 99.792,395.196 99.625 C 395.349 99.384,395.385 10.994,395.232 10.597 C 395.090 10.225,7.328 10.188,7.020 10.559 M393.071 12.595 C 393.425 12.949,393.478 97.073,393.125 97.552 C 392.929 97.818,381.285 97.832,200.833 97.793 L 8.750 97.750 8.708 55.137 C 8.668 14.656,8.681 12.521,8.958 12.448 C 9.917 12.198,392.820 12.344,393.071 12.595 M19.749 19.208 C 19.700 19.415,19.679 35.708,19.704 55.417 L 19.750 91.250 125.613 91.292 C 221.688 91.330,231.500 91.309,231.738 91.072 C 232.141 90.669,232.139 19.089,231.736 18.934 C 231.591 18.879,183.855 18.833,125.656 18.833 L 19.840 18.833 19.749 19.208 M102.113 41.664 C 105.243 42.651,106.846 44.213,107.591 46.998 C 108.017 48.593,107.952 48.901,107.152 49.061 C 105.831 49.326,105.000 49.018,105.000 48.265 C 105.000 47.807,104.247 46.378,103.689 45.777 C 101.852 43.800,96.477 43.714,94.443 45.630 C 92.502 47.458,93.493 50.928,96.167 51.664 C 96.487 51.753,97.047 51.977,97.410 52.163 C 97.773 52.348,98.245 52.500,98.457 52.500 C 98.670 52.500,99.122 52.616,99.462 52.758 C 99.802 52.900,100.419 53.091,100.832 53.183 C 101.637 53.361,103.588 54.073,104.000 54.339 C 104.138 54.428,104.424 54.576,104.636 54.667 C 107.815 56.037,109.242 60.154,107.678 63.443 C 107.034 64.799,105.095 66.488,103.864 66.767 C 103.618 66.823,102.940 67.010,102.357 67.184 C 101.203 67.528,98.765 67.604,97.583 67.332 C 95.995 66.966,94.718 66.563,94.292 66.292 C 94.040 66.131,93.634 65.878,93.389 65.728 C 92.713 65.314,91.500 64.151,91.500 63.916 C 91.500 63.801,91.397 63.622,91.271 63.518 C 91.010 63.301,90.239 61.206,90.099 60.333 C 89.970 59.530,90.145 59.338,91.096 59.238 C 92.470 59.093,92.883 59.301,93.119 60.261 C 93.510 61.855,94.486 63.048,96.083 63.882 C 97.571 64.658,101.533 64.691,103.042 63.939 C 106.947 61.991,105.503 57.153,100.749 56.261 C 100.389 56.193,99.904 56.039,99.670 55.919 C 99.437 55.798,98.872 55.644,98.414 55.578 C 97.957 55.511,97.305 55.316,96.965 55.145 C 96.625 54.973,96.212 54.833,96.047 54.833 C 95.202 54.833,92.506 53.047,91.591 51.881 C 87.856 47.122,92.424 40.934,99.447 41.239 C 100.376 41.279,101.423 41.446,102.113 41.664 M287.833 41.496 C 287.421 41.571,286.783 41.748,286.417 41.892 C 286.050 42.035,285.496 42.155,285.186 42.159 C 284.876 42.163,284.389 42.308,284.103 42.481 C 283.817 42.654,283.401 42.851,283.178 42.919 C 281.672 43.376,277.864 47.065,277.828 48.101 C 277.825 48.183,277.638 48.625,277.413 49.083 C 277.188 49.542,277.002 50.120,277.002 50.369 C 277.001 50.618,276.843 51.218,276.652 51.702 C 276.245 52.731,276.226 56.553,276.625 57.033 C 276.739 57.171,276.881 57.651,276.940 58.100 C 277.033 58.812,277.511 59.960,278.458 61.750 C 278.786 62.369,281.296 64.873,281.942 65.225 C 282.203 65.367,282.604 65.570,282.833 65.675 C 283.063 65.780,283.632 66.047,284.100 66.267 C 284.567 66.487,285.227 66.667,285.567 66.667 C 285.906 66.667,286.423 66.796,286.717 66.954 C 287.407 67.326,291.188 67.380,291.809 67.027 C 292.024 66.904,292.695 66.733,293.300 66.648 C 293.905 66.562,294.516 66.389,294.658 66.263 C 294.800 66.136,295.193 65.958,295.531 65.866 C 295.869 65.774,296.244 65.613,296.365 65.508 C 296.485 65.403,296.979 65.025,297.463 64.668 C 299.433 63.213,301.247 60.667,301.575 58.896 C 301.640 58.541,301.819 57.987,301.972 57.667 C 302.379 56.812,302.381 51.614,301.974 51.000 C 301.823 50.771,301.644 50.246,301.578 49.833 C 301.512 49.421,301.322 48.911,301.157 48.701 C 300.992 48.490,300.808 48.096,300.748 47.826 C 300.689 47.555,300.573 47.333,300.491 47.333 C 300.409 47.333,300.218 47.090,300.066 46.792 C 299.915 46.494,299.658 46.123,299.496 45.968 C 299.333 45.812,299.174 45.625,299.142 45.551 C 298.937 45.081,296.191 43.052,295.558 42.903 C 295.297 42.841,294.858 42.659,294.583 42.499 C 294.308 42.339,293.678 42.157,293.182 42.095 C 292.687 42.033,292.087 41.881,291.849 41.759 C 291.307 41.479,288.830 41.317,287.833 41.496 M365.072 41.497 C 364.607 41.566,364.076 41.704,363.892 41.802 C 363.708 41.900,363.151 42.030,362.654 42.090 C 362.157 42.150,361.547 42.342,361.298 42.516 C 361.050 42.691,360.779 42.833,360.696 42.833 C 360.525 42.833,359.444 43.639,358.857 44.205 C 358.640 44.413,358.316 44.883,358.136 45.250 C 357.956 45.617,357.700 46.104,357.567 46.333 C 357.206 46.956,357.304 51.338,357.689 51.775 C 357.838 51.944,358.016 52.271,358.084 52.500 C 358.308 53.259,360.500 55.132,361.500 55.420 C 361.729 55.486,362.038 55.645,362.185 55.775 C 362.333 55.904,362.871 56.078,363.381 56.161 C 363.891 56.244,364.520 56.419,364.779 56.549 C 365.038 56.680,365.625 56.832,366.083 56.887 C 369.549 57.304,370.989 60.401,368.418 61.907 C 366.579 62.985,363.167 61.618,363.167 59.803 C 363.167 59.250,362.789 59.167,360.289 59.167 C 357.129 59.167,357.136 59.163,357.266 60.715 C 357.328 61.450,357.480 62.080,357.660 62.337 C 357.821 62.567,358.012 62.941,358.083 63.166 C 358.253 63.702,360.445 65.833,360.826 65.833 C 360.989 65.833,361.308 65.980,361.536 66.159 C 361.763 66.338,362.407 66.558,362.966 66.648 C 363.525 66.738,364.155 66.905,364.366 67.018 C 365.090 67.407,367.949 67.404,369.147 67.014 C 369.732 66.823,370.407 66.666,370.647 66.666 C 371.322 66.665,373.406 65.550,374.083 64.828 C 374.175 64.730,374.387 64.522,374.554 64.367 C 374.721 64.211,374.967 63.823,375.102 63.506 C 375.236 63.188,375.421 62.882,375.513 62.825 C 376.121 62.450,376.114 57.462,375.505 56.637 C 375.319 56.386,375.167 56.102,375.167 56.007 C 375.167 55.491,372.853 53.553,371.890 53.262 C 371.692 53.203,371.439 53.044,371.328 52.910 C 371.217 52.776,370.934 52.667,370.699 52.667 C 370.464 52.667,369.967 52.520,369.594 52.341 C 369.222 52.162,368.453 51.942,367.886 51.852 C 367.319 51.762,366.682 51.580,366.469 51.446 C 366.257 51.313,365.811 51.156,365.478 51.098 C 364.630 50.950,363.167 49.487,363.167 48.788 C 363.167 45.913,368.795 45.426,369.371 48.251 C 369.583 49.290,369.723 49.333,372.855 49.333 C 376.018 49.333,375.954 49.364,375.519 48.052 C 375.342 47.519,375.152 46.880,375.097 46.631 C 374.850 45.517,372.454 42.833,371.707 42.833 C 371.586 42.833,371.283 42.690,371.035 42.515 C 370.787 42.340,370.208 42.145,369.750 42.082 C 369.292 42.020,368.692 41.875,368.417 41.760 C 367.730 41.475,366.090 41.346,365.072 41.497 M35.617 44.167 C 36.378 45.313,37.075 46.362,37.166 46.500 C 37.870 47.560,39.778 50.470,39.914 50.691 C 40.007 50.842,40.376 51.404,40.735 51.941 C 41.093 52.478,41.727 53.442,42.144 54.083 C 43.430 56.062,43.840 56.535,44.091 56.327 C 44.304 56.150,45.420 54.501,47.583 51.167 C 48.674 49.485,49.097 48.842,49.500 48.250 C 49.798 47.813,50.195 47.190,50.420 46.806 C 50.510 46.653,51.002 45.903,51.514 45.139 C 52.025 44.375,52.696 43.353,53.004 42.869 L 53.564 41.988 54.907 42.035 L 56.250 42.083 56.293 54.232 C 56.324 63.067,56.284 66.442,56.147 66.607 C 55.926 66.873,54.401 66.914,53.761 66.671 L 53.333 66.508 53.333 57.845 C 53.333 51.713,53.278 49.060,53.143 48.765 L 52.953 48.348 52.437 49.049 C 52.153 49.435,51.844 49.871,51.752 50.020 C 51.659 50.168,51.438 50.505,51.261 50.770 C 51.084 51.034,50.306 52.225,49.532 53.417 C 48.758 54.608,48.022 55.733,47.897 55.917 C 47.398 56.648,46.524 57.966,45.948 58.856 C 45.251 59.934,45.132 60.000,43.892 60.000 C 42.659 60.000,42.498 59.885,41.427 58.250 C 40.664 57.084,39.324 55.066,38.399 53.690 C 38.298 53.540,37.708 52.629,37.087 51.667 C 34.241 47.253,34.500 46.649,34.500 57.689 C 34.500 63.924,34.446 66.513,34.316 66.594 C 33.938 66.828,32.012 66.884,31.753 66.669 C 31.483 66.445,31.351 42.371,31.618 42.105 C 31.682 42.040,32.297 42.009,32.984 42.035 L 34.234 42.083 35.617 44.167 M66.950 42.708 C 67.200 43.098,67.519 43.620,67.660 43.869 C 68.614 45.552,70.240 48.358,70.586 48.917 C 70.814 49.283,71.151 49.883,71.336 50.250 C 71.521 50.617,71.888 51.292,72.152 51.750 C 72.417 52.208,72.758 52.820,72.912 53.110 C 73.616 54.442,74.170 54.343,74.935 52.750 C 75.067 52.475,75.379 51.903,75.629 51.479 C 75.879 51.055,76.608 49.795,77.250 48.679 C 77.892 47.562,78.584 46.372,78.789 46.033 C 78.994 45.694,79.318 45.117,79.508 44.750 C 80.911 42.046,80.961 42.000,82.491 42.000 C 84.322 42.000,84.348 42.079,83.163 44.087 C 82.624 45.002,82.039 46.012,81.865 46.333 C 81.584 46.850,80.545 48.635,79.583 50.254 C 79.400 50.563,78.725 51.728,78.083 52.842 C 77.442 53.957,76.753 55.142,76.552 55.476 C 76.352 55.810,75.958 56.512,75.677 57.037 L 75.167 57.990 75.167 62.239 C 75.167 66.270,75.150 66.497,74.844 66.661 C 74.416 66.890,73.286 66.880,72.765 66.643 L 72.349 66.453 72.299 62.102 C 72.246 57.387,72.291 57.646,71.204 55.822 C 70.954 55.403,70.262 54.219,69.667 53.190 C 69.071 52.161,68.433 51.069,68.250 50.764 C 68.067 50.460,67.542 49.555,67.083 48.755 C 66.625 47.954,66.085 47.025,65.884 46.691 C 65.682 46.357,65.445 45.928,65.358 45.739 C 65.270 45.550,65.020 45.132,64.802 44.811 C 63.145 42.369,63.197 42.007,65.206 42.003 L 66.496 42.000 66.950 42.708 M133.633 42.200 C 133.748 42.315,133.833 42.867,133.833 43.500 C 133.833 45.057,133.983 45.000,129.894 45.000 C 127.948 45.000,126.163 45.073,125.928 45.163 L 125.500 45.325 125.500 55.907 C 125.500 66.198,125.491 66.493,125.178 66.661 C 124.771 66.878,123.655 66.884,123.094 66.671 L 122.667 66.508 122.667 55.927 C 122.667 45.636,122.658 45.340,122.344 45.173 C 122.151 45.069,120.609 45.000,118.500 45.000 C 116.391 45.000,114.849 44.931,114.656 44.827 C 114.201 44.584,114.176 42.441,114.625 42.180 C 115.072 41.919,133.372 41.939,133.633 42.200 M144.133 42.200 C 144.529 42.596,144.410 66.447,144.011 66.661 C 143.590 66.886,142.520 66.881,141.858 66.650 L 141.333 66.467 141.333 54.409 C 141.333 43.100,141.351 42.339,141.625 42.180 C 142.034 41.942,143.890 41.957,144.133 42.200 M157.011 42.173 C 157.319 42.337,157.333 42.572,157.333 47.312 L 157.333 52.280 157.758 52.473 C 158.798 52.947,163.297 52.603,164.190 51.980 C 165.821 50.844,165.912 50.684,167.782 45.667 C 168.005 45.071,168.332 44.232,168.510 43.802 C 168.688 43.373,168.833 42.910,168.833 42.773 C 168.833 42.232,169.326 42.000,170.470 42.003 C 172.301 42.007,172.311 42.051,171.170 44.917 C 170.877 45.650,170.535 46.550,170.409 46.917 C 170.174 47.600,169.637 49.036,169.002 50.674 C 168.793 51.216,168.170 52.170,167.499 52.978 C 166.722 53.912,166.385 54.447,166.453 54.637 C 166.534 54.865,168.092 57.698,168.669 58.667 C 169.568 60.176,172.833 66.165,172.833 66.305 C 172.833 66.623,172.221 66.833,171.303 66.831 C 169.731 66.827,169.854 66.935,168.449 64.333 C 168.078 63.646,167.563 62.746,167.304 62.333 C 167.045 61.921,166.727 61.358,166.597 61.083 C 166.154 60.148,163.813 56.087,163.547 55.793 C 163.237 55.451,158.259 55.350,157.656 55.673 C 157.348 55.837,157.333 56.075,157.333 61.069 C 157.333 65.599,157.299 66.321,157.073 66.508 C 156.719 66.802,155.133 66.916,154.691 66.679 L 154.333 66.488 154.333 54.444 C 154.333 45.299,154.381 42.352,154.533 42.200 C 154.778 41.955,156.567 41.935,157.011 42.173 M190.807 42.344 C 190.983 42.532,191.292 43.114,191.493 43.635 C 192.049 45.075,192.408 45.962,192.992 47.333 C 193.285 48.021,193.602 48.846,193.696 49.167 C 193.791 49.487,193.929 49.825,194.003 49.917 C 194.077 50.008,194.300 50.496,194.500 51.000 C 194.700 51.504,194.999 52.254,195.165 52.667 C 195.331 53.079,195.780 54.204,196.163 55.167 C 196.546 56.129,196.991 57.217,197.153 57.583 C 197.314 57.950,197.601 58.625,197.790 59.083 C 197.979 59.542,198.329 60.376,198.567 60.938 C 198.805 61.499,199.000 62.064,199.000 62.192 C 199.000 62.321,199.102 62.574,199.226 62.755 C 199.351 62.935,199.550 63.383,199.668 63.750 C 199.787 64.117,199.977 64.567,200.090 64.750 C 200.974 66.179,200.712 66.835,199.260 66.831 C 198.130 66.828,197.662 66.557,197.389 65.750 C 197.265 65.383,197.055 64.858,196.921 64.583 C 196.787 64.308,196.444 63.521,196.159 62.833 C 195.280 60.711,195.676 60.833,189.678 60.833 C 183.601 60.833,183.545 60.840,183.226 61.650 C 183.096 61.980,182.889 62.438,182.766 62.667 C 182.643 62.896,182.450 63.372,182.337 63.724 C 182.223 64.077,182.026 64.565,181.899 64.808 C 181.773 65.051,181.668 65.340,181.668 65.450 C 181.663 66.388,180.786 66.912,179.410 66.798 C 178.145 66.693,178.088 66.591,178.600 65.325 C 179.186 63.874,179.509 63.063,180.325 61.000 C 180.706 60.038,181.118 59.025,181.241 58.750 C 181.365 58.475,181.620 57.875,181.808 57.417 C 181.997 56.958,182.379 56.046,182.659 55.389 C 182.938 54.732,183.167 54.113,183.167 54.013 C 183.167 53.914,183.317 53.552,183.500 53.210 C 183.683 52.868,183.833 52.473,183.833 52.331 C 183.833 52.190,183.937 51.926,184.064 51.745 C 184.308 51.397,185.496 48.525,186.020 47.018 C 186.191 46.524,186.397 46.036,186.478 45.935 C 186.558 45.833,186.719 45.450,186.837 45.083 C 186.954 44.717,187.143 44.267,187.255 44.083 C 187.368 43.900,187.512 43.525,187.576 43.250 C 187.859 42.022,189.959 41.433,190.807 42.344 M210.624 42.137 C 210.784 42.239,210.840 44.654,210.874 52.926 L 210.917 63.583 216.600 63.667 C 223.227 63.764,222.872 63.669,222.799 65.314 C 222.755 66.290,222.705 66.431,222.333 66.618 C 221.747 66.914,208.328 66.928,208.033 66.633 C 207.815 66.415,207.728 42.328,207.944 42.111 C 208.100 41.955,210.372 41.977,210.624 42.137 M252.371 45.208 L 252.417 48.250 255.867 48.333 C 258.382 48.394,259.376 48.475,259.534 48.633 C 259.703 48.803,259.768 50.759,259.833 57.717 L 259.917 66.583 262.167 66.635 C 263.404 66.663,264.810 66.639,265.292 66.581 L 266.167 66.476 266.167 57.775 C 266.167 50.170,266.199 49.028,266.426 48.704 C 266.680 48.341,266.758 48.333,270.176 48.333 L 273.667 48.333 273.667 45.250 L 273.667 42.167 262.996 42.167 L 252.326 42.167 252.371 45.208 M306.448 42.274 C 306.247 42.475,306.312 57.483,306.516 57.864 C 306.617 58.051,306.808 58.883,306.942 59.712 C 307.093 60.652,307.307 61.375,307.509 61.632 C 307.687 61.859,307.833 62.154,307.833 62.286 C 307.833 62.551,309.797 65.000,310.010 65.000 C 310.082 65.000,310.353 65.177,310.612 65.394 C 310.871 65.610,311.271 65.844,311.500 65.914 C 311.729 65.983,312.030 66.139,312.169 66.260 C 312.307 66.381,312.885 66.555,313.451 66.646 C 314.018 66.737,314.645 66.899,314.845 67.006 C 315.562 67.390,317.693 67.408,318.938 67.041 C 319.568 66.855,320.412 66.655,320.814 66.596 C 321.216 66.537,321.732 66.341,321.962 66.161 C 322.191 65.981,322.488 65.833,322.621 65.833 C 323.088 65.833,325.667 63.510,325.667 63.089 C 325.667 62.971,325.779 62.781,325.915 62.668 C 326.052 62.554,326.247 62.151,326.348 61.772 C 326.448 61.393,326.655 60.944,326.807 60.774 C 327.057 60.495,327.083 59.601,327.083 51.358 L 327.083 42.250 324.167 42.250 L 321.250 42.250 321.159 49.917 C 321.057 58.608,321.009 58.941,319.703 60.213 C 318.068 61.804,313.500 60.970,313.500 59.081 C 313.500 58.938,313.369 58.621,313.208 58.377 C 312.944 57.974,312.909 57.192,312.833 50.091 L 312.750 42.250 309.656 42.205 C 307.955 42.180,306.511 42.211,306.448 42.274 M333.208 42.270 C 333.044 42.342,333.000 44.931,333.000 54.411 L 333.000 66.461 333.375 66.562 C 333.918 66.707,338.713 66.685,338.948 66.536 C 339.086 66.448,339.161 65.450,339.198 63.222 C 339.261 59.337,339.263 59.333,341.012 59.333 C 342.567 59.333,342.593 59.352,343.430 61.063 C 343.838 61.899,344.242 62.696,344.326 62.833 C 344.411 62.971,344.750 63.646,345.080 64.333 C 345.410 65.021,345.814 65.808,345.979 66.083 L 346.278 66.583 349.709 66.583 C 353.453 66.583,353.563 66.559,353.030 65.838 C 352.830 65.568,352.667 65.246,352.667 65.122 C 352.667 64.999,352.479 64.644,352.250 64.333 C 352.021 64.023,351.833 63.645,351.833 63.493 C 351.833 63.342,351.688 63.086,351.509 62.925 C 351.331 62.764,351.140 62.423,351.083 62.167 C 351.027 61.911,350.840 61.573,350.667 61.417 C 350.494 61.260,350.305 60.915,350.246 60.649 C 350.188 60.384,350.079 60.167,350.005 60.167 C 349.381 60.167,349.200 58.092,349.792 57.715 C 350.448 57.297,351.655 56.003,351.936 55.417 C 352.068 55.142,352.285 54.729,352.419 54.500 C 352.552 54.271,352.663 53.875,352.664 53.621 C 352.666 53.366,352.817 52.732,353.000 52.210 C 353.183 51.688,353.333 51.013,353.333 50.710 C 353.333 50.407,353.183 49.732,353.000 49.210 C 352.817 48.688,352.667 48.110,352.667 47.925 C 352.667 46.780,350.646 44.302,349.126 43.582 C 348.828 43.440,348.396 43.215,348.167 43.081 C 347.938 42.948,347.504 42.837,347.203 42.836 C 346.902 42.834,346.377 42.705,346.036 42.549 C 345.422 42.267,333.796 42.015,333.208 42.270 M188.943 47.553 C 188.711 47.949,188.468 48.492,188.402 48.761 C 188.336 49.030,188.144 49.511,187.974 49.831 C 187.805 50.150,187.667 50.498,187.667 50.602 C 187.667 50.776,187.172 51.985,186.583 53.250 C 186.455 53.525,186.113 54.387,185.823 55.167 C 185.532 55.946,185.182 56.811,185.045 57.090 C 184.468 58.260,184.414 58.245,189.304 58.294 C 191.714 58.319,193.787 58.281,193.910 58.211 C 194.187 58.054,193.153 54.936,192.265 53.250 C 192.121 52.975,192.002 52.656,192.001 52.541 C 192.000 52.426,191.850 52.052,191.667 51.710 C 191.483 51.368,191.333 50.983,191.333 50.854 C 191.333 50.725,191.189 50.312,191.012 49.935 C 190.835 49.558,190.449 48.706,190.154 48.042 C 189.525 46.625,189.494 46.613,188.943 47.553 M344.332 47.679 C 345.281 48.026,346.167 48.680,346.167 49.035 C 346.167 49.139,346.279 49.348,346.416 49.499 C 347.144 50.304,346.607 52.832,345.592 53.373 C 345.404 53.473,345.162 53.673,345.055 53.819 C 344.811 54.151,340.081 54.311,339.511 54.006 C 339.048 53.758,338.975 48.347,339.426 47.704 C 339.799 47.171,342.894 47.155,344.332 47.679 M292.712 48.387 C 293.191 48.707,293.713 49.107,293.872 49.276 C 294.699 50.157,295.018 50.598,295.110 50.987 C 295.166 51.223,295.333 51.556,295.481 51.726 C 295.946 52.260,295.868 56.375,295.375 57.248 C 295.169 57.613,295.000 57.988,294.999 58.081 C 294.998 58.349,293.483 59.893,292.750 60.373 C 291.328 61.306,287.663 61.352,286.176 60.457 C 285.111 59.815,283.667 58.345,283.667 57.902 C 283.667 57.836,283.471 57.369,283.233 56.865 C 282.701 55.740,282.673 52.478,283.190 51.892 C 283.340 51.722,283.512 51.354,283.571 51.073 C 283.699 50.469,285.136 48.895,286.076 48.328 C 287.577 47.423,291.317 47.456,292.712 48.387 " stroke="none" fill="#10c3db" fill-rule="evenodd"></path><path id="path1" d="M97.000 41.402 C 94.759 41.965,94.074 42.229,93.111 42.902 C 89.425 45.475,89.471 50.941,93.199 53.382 C 94.438 54.194,95.693 54.833,96.047 54.833 C 96.212 54.833,96.625 54.973,96.965 55.145 C 97.305 55.316,97.957 55.511,98.414 55.578 C 98.872 55.644,99.437 55.798,99.670 55.919 C 99.904 56.039,100.389 56.193,100.749 56.261 C 105.503 57.153,106.947 61.991,103.042 63.939 C 101.533 64.691,97.571 64.658,96.083 63.882 C 94.486 63.048,93.510 61.855,93.119 60.261 C 92.726 58.661,89.842 58.730,90.099 60.333 C 90.239 61.206,91.010 63.301,91.271 63.518 C 91.397 63.622,91.500 63.801,91.500 63.916 C 91.500 64.151,92.713 65.314,93.389 65.728 C 93.634 65.878,94.040 66.131,94.292 66.292 C 94.718 66.563,95.995 66.966,97.583 67.332 C 98.765 67.604,101.203 67.528,102.357 67.184 C 102.940 67.010,103.618 66.823,103.864 66.767 C 105.095 66.488,107.034 64.799,107.678 63.443 C 109.242 60.154,107.815 56.037,104.636 54.667 C 104.424 54.576,104.138 54.428,104.000 54.339 C 103.588 54.073,101.637 53.361,100.832 53.183 C 100.419 53.091,99.802 52.900,99.462 52.758 C 99.122 52.616,98.670 52.500,98.457 52.500 C 98.245 52.500,97.773 52.348,97.410 52.163 C 97.047 51.977,96.487 51.753,96.167 51.664 C 93.493 50.928,92.502 47.458,94.443 45.630 C 96.477 43.714,101.852 43.800,103.689 45.777 C 104.247 46.378,105.000 47.807,105.000 48.265 C 105.000 49.018,105.831 49.326,107.152 49.061 C 108.541 48.784,107.567 45.382,105.555 43.481 C 103.713 41.742,99.615 40.746,97.000 41.402 M31.618 42.105 C 31.351 42.371,31.483 66.445,31.753 66.669 C 32.012 66.884,33.938 66.828,34.316 66.594 C 34.446 66.513,34.500 63.924,34.500 57.689 C 34.500 46.649,34.241 47.253,37.087 51.667 C 37.708 52.629,38.298 53.540,38.399 53.690 C 39.324 55.066,40.664 57.084,41.427 58.250 C 42.498 59.885,42.659 60.000,43.892 60.000 C 45.132 60.000,45.251 59.934,45.948 58.856 C 46.524 57.966,47.398 56.648,47.897 55.917 C 48.022 55.733,48.758 54.608,49.532 53.417 C 50.306 52.225,51.084 51.034,51.261 50.770 C 51.438 50.505,51.659 50.168,51.752 50.020 C 51.844 49.871,52.153 49.435,52.437 49.049 L 52.953 48.348 53.143 48.765 C 53.278 49.060,53.333 51.713,53.333 57.845 L 53.333 66.508 53.761 66.671 C 54.401 66.914,55.926 66.873,56.147 66.607 C 56.284 66.442,56.324 63.067,56.293 54.232 L 56.250 42.083 54.907 42.035 L 53.564 41.988 53.004 42.869 C 52.696 43.353,52.025 44.375,51.514 45.139 C 51.002 45.903,50.510 46.653,50.420 46.806 C 50.195 47.190,49.798 47.813,49.500 48.250 C 49.097 48.842,48.674 49.485,47.583 51.167 C 45.420 54.501,44.304 56.150,44.091 56.327 C 43.840 56.535,43.430 56.062,42.144 54.083 C 41.727 53.442,41.093 52.478,40.735 51.941 C 40.376 51.404,40.007 50.842,39.914 50.691 C 39.778 50.470,37.870 47.560,37.166 46.500 C 37.075 46.362,36.378 45.313,35.617 44.167 L 34.234 42.083 32.984 42.035 C 32.297 42.009,31.682 42.040,31.618 42.105 M63.667 42.165 C 63.401 42.335,63.880 43.452,64.802 44.811 C 65.020 45.132,65.270 45.550,65.358 45.739 C 65.445 45.928,65.682 46.357,65.884 46.691 C 66.085 47.025,66.625 47.954,67.083 48.755 C 67.542 49.555,68.067 50.460,68.250 50.764 C 68.433 51.069,69.071 52.161,69.667 53.190 C 70.262 54.219,70.954 55.403,71.204 55.822 C 72.291 57.646,72.246 57.387,72.299 62.102 L 72.349 66.453 72.765 66.643 C 73.286 66.880,74.416 66.890,74.844 66.661 C 75.150 66.497,75.167 66.270,75.167 62.239 L 75.167 57.990 75.677 57.037 C 75.958 56.512,76.352 55.810,76.552 55.476 C 76.753 55.142,77.442 53.957,78.083 52.842 C 78.725 51.728,79.400 50.563,79.583 50.254 C 80.545 48.635,81.584 46.850,81.865 46.333 C 82.039 46.012,82.624 45.002,83.163 44.087 C 84.348 42.079,84.322 42.000,82.491 42.000 C 80.961 42.000,80.911 42.046,79.508 44.750 C 79.318 45.117,78.994 45.694,78.789 46.033 C 78.584 46.372,77.892 47.562,77.250 48.679 C 76.608 49.795,75.879 51.055,75.629 51.479 C 75.379 51.903,75.067 52.475,74.935 52.750 C 74.170 54.343,73.616 54.442,72.912 53.110 C 72.758 52.820,72.417 52.208,72.152 51.750 C 71.888 51.292,71.521 50.617,71.336 50.250 C 71.151 49.883,70.814 49.283,70.586 48.917 C 70.240 48.358,68.614 45.552,67.660 43.869 C 67.519 43.620,67.200 43.098,66.950 42.708 L 66.496 42.000 65.206 42.003 C 64.497 42.004,63.804 42.077,63.667 42.165 M114.625 42.180 C 114.176 42.441,114.201 44.584,114.656 44.827 C 114.849 44.931,116.391 45.000,118.500 45.000 C 120.609 45.000,122.151 45.069,122.344 45.173 C 122.658 45.340,122.667 45.636,122.667 55.927 L 122.667 66.508 123.094 66.671 C 123.655 66.884,124.771 66.878,125.178 66.661 C 125.491 66.493,125.500 66.198,125.500 55.907 L 125.500 45.325 125.928 45.163 C 126.163 45.073,127.948 45.000,129.894 45.000 C 133.983 45.000,133.833 45.057,133.833 43.500 C 133.833 42.867,133.748 42.315,133.633 42.200 C 133.372 41.939,115.072 41.919,114.625 42.180 M141.625 42.180 C 141.351 42.339,141.333 43.100,141.333 54.409 L 141.333 66.467 141.858 66.650 C 142.520 66.881,143.590 66.886,144.011 66.661 C 144.410 66.447,144.529 42.596,144.133 42.200 C 143.890 41.957,142.034 41.942,141.625 42.180 M154.533 42.200 C 154.381 42.352,154.333 45.299,154.333 54.444 L 154.333 66.488 154.691 66.679 C 155.133 66.916,156.719 66.802,157.073 66.508 C 157.299 66.321,157.333 65.599,157.333 61.069 C 157.333 56.075,157.348 55.837,157.656 55.673 C 158.259 55.350,163.237 55.451,163.547 55.793 C 163.813 56.087,166.154 60.148,166.597 61.083 C 166.727 61.358,167.045 61.921,167.304 62.333 C 167.563 62.746,168.078 63.646,168.449 64.333 C 169.854 66.935,169.731 66.827,171.303 66.831 C 172.221 66.833,172.833 66.623,172.833 66.305 C 172.833 66.165,169.568 60.176,168.669 58.667 C 168.092 57.698,166.534 54.865,166.453 54.637 C 166.385 54.447,166.722 53.912,167.499 52.978 C 168.170 52.170,168.793 51.216,169.002 50.674 C 169.637 49.036,170.174 47.600,170.409 46.917 C 170.535 46.550,170.877 45.650,171.170 44.917 C 172.311 42.051,172.301 42.007,170.470 42.003 C 169.326 42.000,168.833 42.232,168.833 42.773 C 168.833 42.910,168.688 43.373,168.510 43.802 C 168.332 44.232,168.005 45.071,167.782 45.667 C 165.912 50.684,165.821 50.844,164.190 51.980 C 163.297 52.603,158.798 52.947,157.758 52.473 L 157.333 52.280 157.333 47.312 C 157.333 42.572,157.319 42.337,157.011 42.173 C 156.567 41.935,154.778 41.955,154.533 42.200 M188.041 42.375 C 187.849 42.581,187.639 42.975,187.576 43.250 C 187.512 43.525,187.368 43.900,187.255 44.083 C 187.143 44.267,186.954 44.717,186.837 45.083 C 186.719 45.450,186.558 45.833,186.478 45.935 C 186.397 46.036,186.191 46.524,186.020 47.018 C 185.496 48.525,184.308 51.397,184.064 51.745 C 183.937 51.926,183.833 52.190,183.833 52.331 C 183.833 52.473,183.683 52.868,183.500 53.210 C 183.317 53.552,183.167 53.914,183.167 54.013 C 183.167 54.113,182.938 54.732,182.659 55.389 C 182.379 56.046,181.997 56.958,181.808 57.417 C 181.620 57.875,181.365 58.475,181.241 58.750 C 181.118 59.025,180.706 60.038,180.325 61.000 C 179.509 63.063,179.186 63.874,178.600 65.325 C 178.088 66.591,178.145 66.693,179.410 66.798 C 180.786 66.912,181.663 66.388,181.668 65.450 C 181.668 65.340,181.773 65.051,181.899 64.808 C 182.026 64.565,182.223 64.077,182.337 63.724 C 182.450 63.372,182.643 62.896,182.766 62.667 C 182.889 62.438,183.096 61.980,183.226 61.650 C 183.545 60.840,183.601 60.833,189.678 60.833 C 195.676 60.833,195.280 60.711,196.159 62.833 C 196.444 63.521,196.787 64.308,196.921 64.583 C 197.055 64.858,197.265 65.383,197.389 65.750 C 197.662 66.557,198.130 66.828,199.260 66.831 C 200.712 66.835,200.974 66.179,200.090 64.750 C 199.977 64.567,199.787 64.117,199.668 63.750 C 199.550 63.383,199.351 62.935,199.226 62.755 C 199.102 62.574,199.000 62.321,199.000 62.192 C 199.000 62.064,198.805 61.499,198.567 60.938 C 198.329 60.376,197.979 59.542,197.790 59.083 C 197.601 58.625,197.314 57.950,197.153 57.583 C 196.991 57.217,196.546 56.129,196.163 55.167 C 195.780 54.204,195.331 53.079,195.165 52.667 C 194.999 52.254,194.700 51.504,194.500 51.000 C 194.300 50.496,194.077 50.008,194.003 49.917 C 193.929 49.825,193.791 49.487,193.696 49.167 C 193.602 48.846,193.285 48.021,192.992 47.333 C 192.408 45.962,192.049 45.075,191.493 43.635 C 190.842 41.950,189.049 41.295,188.041 42.375 M207.944 42.111 C 207.728 42.328,207.815 66.415,208.033 66.633 C 208.328 66.928,221.747 66.914,222.333 66.618 C 222.705 66.431,222.755 66.290,222.799 65.314 C 222.872 63.669,223.227 63.764,216.600 63.667 L 210.917 63.583 210.874 52.926 C 210.840 44.654,210.784 42.239,210.624 42.137 C 210.372 41.977,208.100 41.955,207.944 42.111 M190.154 48.042 C 190.449 48.706,190.835 49.558,191.012 49.935 C 191.189 50.312,191.333 50.725,191.333 50.854 C 191.333 50.983,191.483 51.368,191.667 51.710 C 191.850 52.052,192.000 52.426,192.001 52.541 C 192.002 52.656,192.121 52.975,192.265 53.250 C 193.153 54.936,194.187 58.054,193.910 58.211 C 193.787 58.281,191.714 58.319,189.304 58.294 C 184.414 58.245,184.468 58.260,185.045 57.090 C 185.182 56.811,185.532 55.946,185.823 55.167 C 186.113 54.387,186.455 53.525,186.583 53.250 C 187.172 51.985,187.667 50.776,187.667 50.602 C 187.667 50.498,187.805 50.150,187.974 49.831 C 188.144 49.511,188.336 49.030,188.402 48.761 C 188.542 48.189,189.308 46.833,189.491 46.833 C 189.561 46.833,189.859 47.377,190.154 48.042 " stroke="none" fill="#040a12" fill-rule="evenodd"></path><path id="path2" d="M6.749 55.083 C 6.749 79.467,6.768 89.417,6.792 77.195 C 6.815 64.973,6.815 45.023,6.792 32.862 C 6.768 20.700,6.749 30.700,6.749 55.083 M105.042 12.458 C 157.819 12.481,244.181 12.481,296.958 12.458 C 349.735 12.435,306.554 12.416,201.000 12.416 C 95.446 12.416,52.265 12.435,105.042 12.458 M287.708 41.448 C 287.869 41.490,288.131 41.490,288.292 41.448 C 288.452 41.406,288.321 41.372,288.000 41.372 C 287.679 41.372,287.548 41.406,287.708 41.448 M364.960 41.451 C 365.168 41.491,365.468 41.490,365.627 41.448 C 365.786 41.406,365.617 41.374,365.250 41.375 C 364.883 41.377,364.753 41.411,364.960 41.451 M285.957 41.599 C 285.903 41.653,285.571 41.806,285.221 41.939 L 284.583 42.181 285.452 42.099 C 285.930 42.054,286.530 41.904,286.785 41.765 L 287.250 41.513 286.653 41.507 C 286.324 41.503,286.011 41.544,285.957 41.599 M291.833 41.750 C 292.063 41.881,292.400 41.988,292.583 41.988 C 292.878 41.988,292.868 41.960,292.500 41.750 C 292.271 41.619,291.933 41.512,291.750 41.512 C 291.456 41.512,291.465 41.540,291.833 41.750 M362.667 41.735 C 362.438 41.856,361.856 42.048,361.375 42.161 C 360.894 42.274,360.500 42.429,360.500 42.505 C 360.500 42.582,360.352 42.691,360.170 42.749 C 356.954 43.770,355.597 50.093,357.953 53.083 C 358.588 53.890,359.153 54.500,359.265 54.500 C 359.322 54.500,359.591 54.688,359.864 54.917 C 360.136 55.146,360.456 55.333,360.574 55.333 C 360.692 55.333,360.971 55.477,361.195 55.653 C 361.418 55.829,361.897 56.016,362.259 56.070 C 362.621 56.123,362.804 56.120,362.667 56.062 C 362.529 56.004,362.304 55.863,362.167 55.748 C 362.029 55.633,361.729 55.486,361.500 55.420 C 360.500 55.132,358.308 53.259,358.084 52.500 C 358.016 52.271,357.838 51.944,357.689 51.775 C 357.304 51.338,357.206 46.956,357.567 46.333 C 357.700 46.104,357.956 45.617,358.136 45.250 C 358.316 44.883,358.640 44.413,358.857 44.205 C 359.444 43.639,360.525 42.833,360.696 42.833 C 360.779 42.833,361.050 42.691,361.298 42.516 C 361.547 42.342,362.140 42.152,362.617 42.095 C 363.094 42.037,363.731 41.883,364.034 41.752 L 364.583 41.513 363.833 41.513 C 363.421 41.513,362.896 41.613,362.667 41.735 M368.417 41.756 C 369.132 42.083,369.741 42.079,369.167 41.750 C 368.938 41.619,368.563 41.515,368.333 41.519 C 367.927 41.527,367.929 41.533,368.417 41.756 M251.871 42.307 C 251.709 42.409,251.670 43.150,251.704 45.429 L 251.750 48.417 255.250 48.500 C 257.175 48.546,258.844 48.644,258.958 48.718 C 259.121 48.823,259.167 50.801,259.167 57.677 C 259.167 66.389,259.171 66.500,259.500 66.500 C 259.940 66.500,260.034 49.338,259.597 48.740 C 259.380 48.443,259.079 48.410,255.889 48.333 L 252.417 48.250 252.371 45.208 C 252.346 43.535,252.271 42.168,252.205 42.169 C 252.138 42.171,251.988 42.232,251.871 42.307 M283.314 42.475 C 283.096 42.644,282.729 42.828,282.500 42.884 C 282.060 42.992,281.860 43.128,280.358 44.347 C 279.562 44.992,278.924 45.652,278.176 46.602 C 275.589 49.888,275.229 57.590,277.503 61.000 C 277.656 61.229,277.994 61.740,278.254 62.135 C 279.562 64.125,282.510 66.295,284.305 66.591 C 284.938 66.695,284.594 66.481,282.833 65.674 C 282.604 65.570,282.203 65.367,281.942 65.225 C 281.296 64.873,278.786 62.369,278.458 61.750 C 277.511 59.960,277.033 58.812,276.940 58.100 C 276.881 57.651,276.739 57.171,276.625 57.033 C 276.226 56.553,276.245 52.731,276.652 51.702 C 276.843 51.218,277.001 50.618,277.002 50.369 C 277.002 50.120,277.188 49.542,277.413 49.083 C 277.638 48.625,277.825 48.183,277.828 48.101 C 277.866 47.022,281.585 43.464,283.294 42.871 C 283.593 42.767,284.003 42.566,284.206 42.425 L 284.574 42.167 284.143 42.167 C 283.906 42.167,283.533 42.305,283.314 42.475 M294.583 42.500 C 294.858 42.682,295.158 42.831,295.250 42.831 C 295.342 42.831,295.192 42.682,294.917 42.500 C 294.642 42.318,294.342 42.169,294.250 42.169 C 294.158 42.169,294.308 42.318,294.583 42.500 M306.208 42.277 C 305.898 42.402,305.920 56.474,306.234 58.689 C 306.459 60.273,307.146 62.336,307.600 62.791 C 307.728 62.919,307.833 63.098,307.833 63.189 C 307.833 63.471,310.125 65.644,310.702 65.909 C 311.004 66.047,311.362 66.231,311.500 66.318 C 312.017 66.645,314.609 67.334,315.250 67.315 C 315.617 67.304,315.767 67.261,315.583 67.219 C 315.400 67.177,314.950 67.041,314.583 66.915 C 314.217 66.790,313.567 66.641,313.139 66.585 C 312.711 66.529,312.276 66.382,312.173 66.258 C 312.071 66.134,311.788 65.983,311.546 65.922 C 311.304 65.861,310.889 65.629,310.623 65.406 C 310.358 65.183,310.082 65.000,310.010 65.000 C 309.797 65.000,307.833 62.551,307.833 62.286 C 307.833 62.154,307.686 61.857,307.505 61.627 C 307.306 61.374,307.106 60.726,306.998 59.980 C 306.900 59.303,306.708 58.444,306.573 58.069 C 306.367 57.498,306.334 56.156,306.372 49.777 C 306.396 45.591,306.417 42.173,306.417 42.180 C 306.417 42.187,306.323 42.231,306.208 42.277 M320.635 49.958 L 320.583 57.750 320.104 58.788 C 319.610 59.857,318.800 60.655,318.003 60.856 C 317.772 60.914,317.919 60.932,318.328 60.896 C 319.332 60.807,320.188 59.975,320.695 58.597 C 321.212 57.189,321.463 42.166,320.969 42.167 C 320.710 42.167,320.683 42.779,320.635 49.958 M332.611 42.278 C 332.550 42.339,332.500 47.812,332.500 54.441 L 332.500 66.494 332.924 66.600 C 333.158 66.659,333.395 66.660,333.452 66.603 C 333.509 66.547,333.431 66.500,333.278 66.500 C 332.911 66.500,332.842 42.425,333.208 42.277 C 333.323 42.231,333.260 42.187,333.069 42.180 C 332.878 42.173,332.672 42.217,332.611 42.278 M345.083 42.316 C 345.450 42.390,345.961 42.537,346.219 42.642 C 346.932 42.933,347.336 42.876,346.750 42.568 C 346.475 42.423,345.837 42.277,345.333 42.243 C 344.510 42.187,344.485 42.195,345.083 42.316 M366.083 46.498 C 367.826 46.698,368.751 47.442,369.230 49.030 C 369.345 49.414,370.309 49.530,372.833 49.462 L 374.917 49.405 372.490 49.369 C 369.761 49.329,369.578 49.263,369.371 48.251 C 369.144 47.135,367.813 46.325,366.263 46.359 L 365.083 46.384 366.083 46.498 M339.535 47.542 C 339.398 47.707,339.854 47.751,341.723 47.754 C 344.282 47.758,344.711 47.871,345.467 48.745 C 347.011 50.531,346.104 53.211,343.681 54.021 C 343.356 54.130,343.452 54.149,344.073 54.099 C 344.528 54.063,344.976 53.927,345.073 53.794 C 345.170 53.662,345.404 53.473,345.592 53.373 C 346.607 52.832,347.144 50.304,346.416 49.499 C 346.279 49.348,346.167 49.139,346.167 49.035 C 346.167 47.875,340.345 46.564,339.535 47.542 M288.713 47.789 C 289.152 47.824,289.827 47.823,290.213 47.788 C 290.600 47.754,290.242 47.725,289.417 47.726 C 288.592 47.726,288.275 47.755,288.713 47.789 M291.629 48.167 C 291.929 48.350,292.250 48.500,292.341 48.500 C 292.692 48.500,294.287 50.292,294.713 51.167 C 295.525 52.829,295.492 56.572,294.657 57.634 C 294.479 57.860,294.333 58.136,294.333 58.247 C 294.333 58.855,292.049 60.553,290.833 60.847 C 290.374 60.958,290.445 60.970,291.167 60.902 C 292.396 60.785,294.996 58.872,294.999 58.081 C 295.000 57.988,295.169 57.613,295.375 57.248 C 295.868 56.375,295.946 52.260,295.481 51.726 C 295.333 51.556,295.166 51.223,295.110 50.987 C 295.018 50.598,294.699 50.157,293.872 49.276 C 293.342 48.712,291.887 47.833,291.483 47.834 C 291.110 47.835,291.120 47.857,291.629 48.167 M266.609 48.458 C 266.566 48.527,267.593 48.564,268.891 48.540 C 273.185 48.462,273.628 48.400,270.135 48.366 C 268.238 48.348,266.651 48.390,266.609 48.458 M366.430 51.391 C 366.621 51.531,366.996 51.692,367.264 51.748 L 367.750 51.851 367.333 51.613 C 366.656 51.226,365.981 51.060,366.430 51.391 M369.407 52.255 C 369.828 52.574,370.099 52.570,369.833 52.250 C 369.719 52.112,369.504 52.002,369.355 52.005 C 369.127 52.010,369.135 52.050,369.407 52.255 M363.583 56.509 C 363.950 56.683,364.475 56.820,364.750 56.815 L 365.250 56.806 364.583 56.491 C 364.217 56.317,363.692 56.180,363.417 56.185 L 362.917 56.194 363.583 56.509 M365.886 56.988 C 366.144 57.074,366.444 57.215,366.552 57.303 C 366.661 57.390,366.975 57.511,367.250 57.572 C 368.226 57.788,369.336 59.074,369.329 59.981 C 369.318 61.393,367.124 62.532,365.543 61.946 C 364.628 61.607,364.426 61.681,365.228 62.062 C 367.049 62.926,369.731 61.702,369.867 59.944 C 369.959 58.769,367.918 57.097,366.167 56.912 C 365.542 56.846,365.495 56.859,365.886 56.988 M356.725 59.090 C 356.550 59.543,356.772 61.584,357.041 62.010 C 357.183 62.234,357.354 62.604,357.422 62.833 C 357.543 63.243,358.777 64.857,359.063 64.979 C 359.143 65.014,359.362 65.195,359.550 65.383 C 359.973 65.807,361.223 66.458,362.000 66.659 C 362.321 66.742,362.883 66.925,363.250 67.065 C 363.617 67.204,364.254 67.314,364.667 67.309 C 365.351 67.300,365.372 67.288,364.902 67.176 C 364.619 67.109,364.301 67.000,364.195 66.934 C 364.089 66.869,363.541 66.741,362.976 66.650 C 362.412 66.559,361.763 66.338,361.536 66.159 C 361.308 65.980,360.989 65.833,360.826 65.833 C 360.445 65.833,358.253 63.702,358.083 63.166 C 358.012 62.941,357.821 62.567,357.660 62.337 C 357.480 62.080,357.328 61.450,357.266 60.715 C 357.134 59.131,357.122 59.137,360.421 59.200 C 362.088 59.232,362.981 59.191,362.945 59.083 C 362.841 58.772,356.844 58.778,356.725 59.090 M339.575 59.675 C 339.269 60.014,339.270 60.016,339.727 59.842 C 341.708 59.089,342.164 59.474,344.185 63.611 C 345.259 65.809,345.666 66.488,345.940 66.543 C 346.295 66.613,346.295 66.611,345.988 66.098 C 345.818 65.815,345.409 65.021,345.079 64.333 C 344.750 63.646,344.411 62.971,344.326 62.833 C 344.242 62.696,343.838 61.899,343.430 61.063 C 342.593 59.352,342.567 59.333,341.012 59.333 C 340.087 59.333,339.829 59.395,339.575 59.675 M288.875 61.119 C 289.127 61.158,289.540 61.158,289.792 61.119 C 290.044 61.081,289.837 61.050,289.333 61.050 C 288.829 61.050,288.623 61.081,288.875 61.119 M316.542 61.115 C 316.702 61.157,316.965 61.157,317.125 61.115 C 317.285 61.073,317.154 61.039,316.833 61.039 C 316.512 61.039,316.381 61.073,316.542 61.115 M321.977 66.177 L 321.583 66.520 322.083 66.227 C 322.741 65.842,322.751 65.833,322.546 65.833 C 322.449 65.833,322.193 65.988,321.977 66.177 M285.500 66.938 C 285.821 67.080,286.533 67.225,287.083 67.259 C 287.842 67.307,287.942 67.291,287.500 67.192 C 287.179 67.120,286.753 66.973,286.553 66.864 C 286.352 66.756,285.902 66.670,285.553 66.673 L 284.917 66.680 285.500 66.938 M292.167 66.864 C 291.938 66.961,291.525 67.105,291.250 67.184 C 290.835 67.303,290.879 67.315,291.507 67.255 C 292.296 67.179,293.566 66.660,292.917 66.678 C 292.733 66.684,292.396 66.767,292.167 66.864 M319.000 67.007 C 318.257 67.255,318.178 67.313,318.583 67.314 C 318.858 67.314,319.421 67.173,319.833 67.000 C 320.789 66.599,320.207 66.604,319.000 67.007 M369.167 67.000 C 368.407 67.258,368.336 67.312,368.750 67.318 C 369.025 67.322,369.550 67.183,369.917 67.009 C 370.773 66.604,370.349 66.599,369.167 67.000 " stroke="none" fill="#8fc4dd" fill-rule="evenodd"></path><path id="path3" d="M0.000 54.750 L 0.000 109.500 200.000 109.500 L 400.000 109.500 400.000 54.750 L 400.000 0.000 200.000 0.000 L 0.000 0.000 0.000 54.750 M395.405 9.929 C 395.726 10.250,395.815 99.578,395.494 100.178 C 395.322 100.500,7.595 100.718,6.757 100.396 C 5.961 100.091,6.000 102.416,6.000 55.114 L 6.000 10.878 6.369 10.397 C 6.572 10.133,6.816 9.862,6.911 9.794 C 7.306 9.513,395.124 9.647,395.405 9.929 M9.278 12.944 C 9.217 13.006,9.167 32.018,9.167 55.194 L 9.167 97.333 200.736 97.333 C 306.100 97.333,392.425 97.288,392.570 97.232 C 392.809 97.140,392.833 93.277,392.833 55.145 L 392.833 13.158 392.406 12.996 C 391.920 12.811,9.462 12.760,9.278 12.944 M232.494 18.489 C 232.867 19.186,232.719 91.293,232.344 91.494 C 231.846 91.761,19.800 91.733,19.533 91.467 C 19.190 91.123,19.249 19.028,19.593 18.537 L 19.852 18.167 126.087 18.167 C 230.947 18.167,232.324 18.171,232.494 18.489 M293.066 41.492 C 293.478 41.680,294.034 41.833,294.302 41.833 C 294.569 41.833,294.967 41.973,295.186 42.144 C 295.404 42.314,295.760 42.509,295.976 42.577 C 296.764 42.824,298.075 43.773,299.208 44.917 C 299.986 45.701,301.167 47.304,301.167 47.574 C 301.167 47.642,301.317 47.888,301.500 48.121 C 301.683 48.354,301.833 48.689,301.833 48.865 C 301.833 49.041,301.986 49.519,302.172 49.928 C 302.892 51.510,302.953 57.384,302.261 58.630 C 302.123 58.879,301.932 59.393,301.837 59.772 C 301.742 60.151,301.552 60.554,301.415 60.668 C 301.279 60.781,301.167 60.965,301.167 61.075 C 301.167 62.588,296.344 66.592,294.096 66.945 C 293.723 67.004,293.233 67.172,293.008 67.318 C 292.380 67.726,287.206 67.801,286.166 67.417 C 285.754 67.264,285.066 67.069,284.638 66.982 C 281.514 66.345,277.450 62.457,276.676 59.362 C 276.592 59.026,276.394 58.413,276.236 58.000 C 275.818 56.908,275.818 51.757,276.236 50.667 C 276.395 50.254,276.605 49.617,276.704 49.250 C 276.804 48.883,277.023 48.384,277.192 48.141 C 277.362 47.898,277.500 47.643,277.500 47.575 C 277.500 47.083,279.532 44.661,280.685 43.779 C 281.826 42.906,283.804 41.907,284.666 41.769 C 285.070 41.705,285.501 41.569,285.623 41.467 C 286.301 40.904,291.818 40.923,293.066 41.492 M369.637 41.507 C 370.043 41.686,370.544 41.833,370.749 41.833 C 370.954 41.833,371.301 41.973,371.519 42.144 C 371.738 42.314,372.083 42.506,372.287 42.570 C 374.095 43.137,376.554 47.434,376.101 49.238 L 375.994 49.667 372.669 49.667 C 369.064 49.667,369.000 49.650,369.000 48.690 C 369.000 48.322,368.240 47.333,367.957 47.333 C 367.857 47.333,367.657 47.225,367.511 47.093 C 366.665 46.327,364.317 47.044,363.979 48.171 C 363.755 48.918,364.102 49.904,364.650 50.078 C 364.821 50.132,365.131 50.324,365.339 50.505 C 365.547 50.686,365.912 50.837,366.151 50.841 C 366.389 50.845,366.883 50.963,367.250 51.103 C 367.617 51.243,368.381 51.452,368.949 51.568 C 369.517 51.683,370.080 51.858,370.199 51.956 C 370.319 52.054,370.752 52.224,371.161 52.333 C 371.570 52.443,372.086 52.675,372.308 52.849 C 372.530 53.024,372.782 53.167,372.867 53.167 C 373.293 53.167,374.985 54.706,375.524 55.583 C 377.672 59.082,376.510 64.467,373.250 66.120 C 372.975 66.259,372.637 66.469,372.500 66.585 C 372.363 66.701,371.912 66.874,371.500 66.969 C 371.087 67.064,370.450 67.257,370.083 67.397 C 369.138 67.759,364.365 67.759,363.417 67.398 C 363.050 67.258,362.466 67.073,362.118 66.986 C 359.211 66.261,356.510 62.807,356.502 59.804 C 356.499 58.527,356.572 58.500,359.970 58.503 C 363.391 58.506,363.144 58.414,363.841 59.940 C 364.608 61.617,366.659 62.202,368.477 61.262 C 369.773 60.592,369.039 58.269,367.417 57.902 C 367.142 57.840,366.655 57.649,366.336 57.478 C 366.016 57.307,365.491 57.163,365.169 57.159 C 364.847 57.155,364.283 57.037,363.917 56.897 C 363.550 56.757,362.912 56.563,362.500 56.466 C 362.087 56.369,361.571 56.150,361.353 55.978 C 361.134 55.807,360.862 55.667,360.748 55.667 C 360.461 55.667,358.802 54.359,358.316 53.749 C 357.227 52.386,356.927 51.605,356.555 49.154 C 356.441 48.407,357.093 45.731,357.521 45.186 C 357.693 44.967,357.833 44.711,357.833 44.617 C 357.833 44.086,360.897 41.835,361.622 41.832 C 361.784 41.832,362.142 41.710,362.417 41.561 C 363.591 40.926,368.245 40.891,369.637 41.507 M273.994 42.156 C 274.186 42.514,274.205 47.658,274.018 48.333 L 273.902 48.750 270.326 48.833 L 266.750 48.917 266.667 57.798 C 266.595 65.449,266.549 66.701,266.333 66.837 C 265.879 67.124,259.965 67.040,259.537 66.741 L 259.167 66.481 259.167 57.830 C 259.167 49.447,259.157 49.173,258.844 49.006 C 258.655 48.904,257.220 48.833,255.356 48.833 C 251.324 48.833,251.667 49.158,251.667 45.333 C 251.667 42.850,251.710 42.314,251.929 42.095 C 252.380 41.644,273.752 41.703,273.994 42.156 M313.178 42.006 C 313.489 42.172,313.500 42.430,313.500 49.332 C 313.500 58.049,313.566 58.674,314.604 59.726 C 316.108 61.252,318.502 60.992,319.833 59.157 L 320.250 58.583 320.294 50.500 C 320.337 42.520,320.342 42.413,320.687 42.125 C 321.182 41.712,327.047 41.685,327.630 42.093 L 328.000 42.352 327.990 49.884 C 327.985 54.027,327.917 57.754,327.839 58.167 C 327.762 58.579,327.607 59.404,327.495 60.000 C 327.293 61.078,326.417 63.167,326.167 63.167 C 326.095 63.167,325.992 63.343,325.938 63.557 C 325.855 63.888,325.162 64.597,323.796 65.750 C 323.637 65.883,323.262 66.109,322.962 66.251 C 322.662 66.393,322.229 66.618,322.000 66.752 C 321.771 66.886,321.394 66.996,321.162 66.998 C 320.930 66.999,320.555 67.131,320.329 67.292 C 319.718 67.724,315.082 67.817,314.000 67.418 C 313.587 67.266,312.912 67.062,312.500 66.966 C 312.087 66.869,311.571 66.650,311.353 66.478 C 311.134 66.307,310.871 66.166,310.769 66.164 C 309.862 66.154,306.667 62.180,306.667 61.063 C 306.667 60.965,306.535 60.629,306.375 60.317 C 305.988 59.565,305.823 42.215,306.200 41.976 C 306.520 41.773,312.793 41.800,313.178 42.006 M346.893 42.147 C 347.045 42.273,347.521 42.443,347.950 42.523 C 348.379 42.603,348.890 42.818,349.084 43.001 C 349.279 43.184,349.546 43.334,349.677 43.335 C 350.792 43.341,352.852 46.329,353.526 48.917 C 353.769 49.848,353.593 53.084,353.273 53.572 C 353.136 53.780,352.974 54.220,352.912 54.548 C 352.851 54.876,352.658 55.274,352.483 55.432 C 352.309 55.589,352.167 55.811,352.167 55.924 C 352.167 56.187,350.700 57.731,350.208 57.985 C 349.747 58.223,349.719 58.809,350.144 59.353 C 350.314 59.571,350.512 59.938,350.583 60.167 C 350.654 60.396,350.852 60.762,351.023 60.981 C 351.194 61.199,351.333 61.466,351.333 61.573 C 351.333 61.681,351.521 62.023,351.750 62.333 C 351.979 62.644,352.167 63.022,352.167 63.173 C 352.167 63.325,352.310 63.578,352.485 63.736 C 352.660 63.895,352.851 64.214,352.909 64.446 C 352.967 64.677,353.155 65.065,353.327 65.308 C 354.378 66.797,354.147 66.908,349.873 66.967 C 345.575 67.027,345.731 67.085,344.761 65.047 C 344.421 64.334,344.078 63.637,343.999 63.500 C 343.573 62.762,342.667 60.867,342.667 60.715 C 342.667 60.318,341.822 59.983,340.951 60.033 L 340.083 60.083 340.038 63.274 C 340.000 65.985,339.952 66.499,339.721 66.691 C 339.424 66.937,333.194 67.030,332.625 66.797 C 332.247 66.642,332.164 42.402,332.540 42.027 C 332.857 41.710,346.504 41.824,346.893 42.147 M340.033 48.200 C 339.895 48.339,339.833 49.207,339.833 51.030 L 339.833 53.660 340.255 53.766 C 342.291 54.277,345.356 53.384,345.782 52.156 C 346.462 50.200,345.680 48.485,343.961 48.159 C 342.755 47.931,340.277 47.956,340.033 48.200 M286.583 48.643 C 283.473 50.364,282.312 55.162,284.323 57.986 C 284.512 58.251,284.667 58.520,284.667 58.584 C 284.667 58.736,285.665 59.667,285.828 59.667 C 285.897 59.667,286.245 59.870,286.602 60.118 C 287.592 60.808,291.075 60.808,292.065 60.118 C 292.421 59.870,292.774 59.667,292.849 59.667 C 293.311 59.667,294.596 57.796,294.951 56.607 C 295.843 53.617,294.573 49.574,292.536 48.928 C 292.334 48.864,292.043 48.685,291.888 48.531 C 291.348 47.989,287.622 48.068,286.583 48.643 " stroke="none" fill="#fcfbfb" fill-rule="evenodd"></path><path id="path4" d="M6.911 9.794 C 6.816 9.862,6.572 10.133,6.369 10.397 L 6.000 10.878 6.000 55.114 C 6.000 102.416,5.961 100.091,6.757 100.396 C 7.595 100.718,395.322 100.500,395.494 100.178 C 395.815 99.578,395.726 10.250,395.405 9.929 C 395.124 9.647,7.306 9.513,6.911 9.794 M395.251 10.708 C 395.300 10.915,395.321 31.033,395.296 55.417 L 395.250 99.750 201.167 99.793 C 18.835 99.832,7.071 99.818,6.875 99.552 C 6.570 99.139,6.569 11.152,6.873 10.664 C 7.080 10.334,7.702 10.333,201.120 10.333 L 395.160 10.333 395.251 10.708 M8.778 12.611 C 8.639 12.750,8.629 97.208,8.768 97.570 C 8.943 98.026,392.916 97.968,393.161 97.511 C 393.427 97.014,393.400 12.966,393.133 12.700 C 392.915 12.481,8.996 12.393,8.778 12.611 M392.406 12.996 L 392.833 13.158 392.833 55.145 C 392.833 93.277,392.809 97.140,392.570 97.232 C 392.425 97.288,306.100 97.333,200.736 97.333 L 9.167 97.333 9.167 55.194 C 9.167 32.018,9.217 13.006,9.278 12.944 C 9.462 12.760,391.920 12.811,392.406 12.996 M19.593 18.537 C 19.249 19.028,19.190 91.123,19.533 91.467 C 19.800 91.733,231.846 91.761,232.344 91.494 C 232.719 91.293,232.867 19.186,232.494 18.489 C 232.324 18.171,230.947 18.167,126.087 18.167 L 19.852 18.167 19.593 18.537 M231.959 55.038 L 232.001 91.160 231.625 91.250 C 231.419 91.300,183.662 91.320,125.500 91.295 L 19.750 91.250 19.707 55.250 C 19.684 35.450,19.700 19.156,19.744 19.042 C 19.807 18.875,41.120 18.841,125.870 18.875 L 231.917 18.917 231.959 55.038 M286.882 41.152 C 286.312 41.223,285.746 41.365,285.623 41.467 C 285.501 41.569,285.070 41.705,284.666 41.769 C 284.002 41.876,282.301 42.642,281.937 42.999 C 281.722 43.210,282.849 42.787,283.333 42.475 C 283.563 42.327,284.077 42.158,284.476 42.098 C 284.875 42.039,285.438 41.864,285.726 41.709 C 286.159 41.477,286.744 41.428,289.083 41.428 C 291.423 41.428,292.008 41.477,292.441 41.709 C 292.729 41.864,293.285 42.042,293.677 42.104 C 294.446 42.227,295.651 42.797,296.814 43.587 C 297.216 43.860,297.711 44.196,297.914 44.333 C 298.526 44.748,299.673 46.043,300.017 46.708 C 300.195 47.052,300.408 47.333,300.490 47.333 C 300.573 47.333,300.689 47.555,300.748 47.826 C 300.808 48.096,300.992 48.490,301.157 48.701 C 301.322 48.911,301.512 49.421,301.578 49.833 C 301.644 50.246,301.823 50.771,301.974 51.000 C 302.381 51.614,302.379 56.812,301.972 57.667 C 301.819 57.987,301.640 58.541,301.575 58.896 C 301.274 60.521,299.530 63.104,297.837 64.432 C 296.253 65.676,296.096 65.778,295.583 65.904 C 295.308 65.971,294.971 66.124,294.833 66.244 C 294.696 66.364,294.176 66.548,293.678 66.653 C 293.180 66.757,292.663 66.934,292.528 67.046 C 292.059 67.436,286.970 67.423,285.769 67.028 C 285.208 66.844,284.504 66.644,284.203 66.582 C 282.584 66.253,280.176 64.558,278.522 62.583 C 278.101 62.081,278.037 62.040,278.259 62.417 C 279.298 64.178,282.650 66.577,284.638 66.982 C 285.066 67.069,285.754 67.264,286.166 67.417 C 287.206 67.801,292.380 67.726,293.008 67.318 C 293.233 67.172,293.723 67.004,294.096 66.945 C 296.344 66.592,301.167 62.588,301.167 61.075 C 301.167 60.965,301.279 60.781,301.415 60.668 C 301.552 60.554,301.742 60.151,301.837 59.772 C 301.932 59.393,302.123 58.879,302.261 58.630 C 302.953 57.384,302.892 51.510,302.172 49.928 C 301.986 49.519,301.833 49.041,301.833 48.865 C 301.833 48.689,301.683 48.354,301.500 48.121 C 301.317 47.888,301.167 47.642,301.167 47.574 C 301.167 47.304,299.986 45.701,299.208 44.917 C 298.075 43.773,296.764 42.824,295.976 42.577 C 295.760 42.509,295.404 42.314,295.186 42.144 C 294.967 41.973,294.569 41.833,294.302 41.833 C 294.034 41.833,293.478 41.680,293.066 41.492 C 292.217 41.105,288.766 40.915,286.882 41.152 M363.917 41.157 C 363.367 41.230,362.692 41.412,362.417 41.561 C 362.142 41.710,361.762 41.832,361.574 41.832 C 361.385 41.833,361.085 41.947,360.907 42.086 C 360.515 42.392,361.102 42.301,362.250 41.876 C 366.967 40.134,374.254 42.830,375.097 46.631 C 375.152 46.880,375.344 47.526,375.524 48.067 C 375.967 49.401,375.959 49.406,372.950 49.475 C 370.032 49.541,369.313 49.418,369.147 48.824 C 369.067 48.539,369.028 48.508,369.017 48.719 C 368.966 49.637,369.082 49.667,372.669 49.667 L 375.994 49.667 376.101 49.238 C 376.554 47.434,374.095 43.137,372.287 42.570 C 372.083 42.506,371.738 42.314,371.519 42.144 C 371.301 41.973,370.954 41.833,370.749 41.833 C 370.544 41.833,370.043 41.686,369.637 41.507 C 368.782 41.128,365.589 40.933,363.917 41.157 M252.042 41.944 C 251.381 42.210,252.839 42.246,262.754 42.206 L 273.674 42.162 273.629 45.289 L 273.583 48.417 270.035 48.500 C 267.127 48.568,266.459 48.628,266.330 48.833 C 266.236 48.982,266.171 52.602,266.169 57.780 L 266.167 66.476 265.257 66.590 C 264.757 66.652,263.217 66.676,261.836 66.642 C 259.788 66.592,259.377 66.620,259.610 66.790 C 259.957 67.044,265.940 67.086,266.333 66.837 C 266.549 66.701,266.595 65.449,266.667 57.798 L 266.750 48.917 270.326 48.833 L 273.902 48.750 274.018 48.333 C 274.205 47.658,274.186 42.514,273.994 42.156 C 273.828 41.845,252.790 41.642,252.042 41.944 M306.208 41.944 C 305.614 42.184,306.301 42.250,309.375 42.250 L 312.750 42.250 312.833 50.091 C 312.906 56.884,312.952 57.987,313.182 58.341 C 313.328 58.566,313.496 58.947,313.555 59.187 C 314.106 61.428,318.695 61.597,319.770 59.417 C 319.990 58.969,319.990 58.952,319.765 59.250 C 318.450 60.997,316.072 61.216,314.604 59.726 C 313.566 58.674,313.500 58.049,313.500 49.332 C 313.500 42.430,313.489 42.172,313.178 42.006 C 312.854 41.833,306.621 41.777,306.208 41.944 M320.704 42.093 L 320.333 42.352 320.354 50.218 C 320.366 54.741,320.432 57.765,320.509 57.333 C 320.582 56.921,320.648 53.338,320.654 49.371 L 320.667 42.159 323.875 42.205 L 327.083 42.250 327.083 51.358 C 327.083 59.601,327.057 60.495,326.807 60.774 C 326.655 60.944,326.448 61.393,326.348 61.772 C 326.247 62.151,326.052 62.554,325.915 62.668 C 325.779 62.781,325.667 62.971,325.667 63.089 C 325.667 63.292,324.350 64.689,323.479 65.412 C 322.958 65.844,321.327 66.655,320.965 66.661 C 320.807 66.664,320.298 66.817,319.833 67.000 C 318.040 67.707,313.051 67.299,311.500 66.318 C 311.362 66.231,311.010 66.049,310.716 65.914 C 310.060 65.612,308.143 63.765,307.780 63.083 C 307.633 62.808,307.510 62.689,307.507 62.818 C 307.490 63.406,310.171 66.157,310.769 66.164 C 310.871 66.166,311.134 66.307,311.353 66.478 C 311.571 66.650,312.087 66.869,312.500 66.966 C 312.912 67.062,313.587 67.266,314.000 67.418 C 315.082 67.817,319.718 67.724,320.329 67.292 C 320.555 67.131,320.930 66.999,321.162 66.998 C 321.394 66.996,321.771 66.886,322.000 66.752 C 322.229 66.618,322.662 66.393,322.962 66.251 C 323.262 66.109,323.637 65.883,323.796 65.750 C 325.162 64.597,325.855 63.888,325.938 63.557 C 325.992 63.343,326.095 63.167,326.167 63.167 C 326.417 63.167,327.293 61.078,327.495 60.000 C 327.607 59.404,327.762 58.579,327.839 58.167 C 327.917 57.754,327.985 54.027,327.990 49.884 L 328.000 42.352 327.630 42.093 C 327.327 41.881,326.696 41.833,324.167 41.833 C 321.637 41.833,321.007 41.881,320.704 42.093 M332.540 42.027 C 332.164 42.402,332.247 66.642,332.625 66.797 C 333.194 67.030,339.424 66.937,339.721 66.691 C 339.952 66.499,340.000 65.985,340.038 63.274 L 340.083 60.083 340.982 60.032 C 341.476 60.004,341.960 60.060,342.057 60.157 C 342.390 60.490,342.551 60.333,342.235 59.983 C 341.959 59.678,341.772 59.642,340.774 59.698 C 339.150 59.790,339.167 59.752,339.167 63.431 C 339.167 66.043,339.130 66.478,338.903 66.566 C 338.511 66.716,332.950 66.683,332.707 66.529 C 332.542 66.423,332.507 63.871,332.541 54.323 L 332.583 42.250 339.433 42.250 C 344.512 42.250,346.345 42.302,346.523 42.450 C 346.655 42.560,347.127 42.731,347.571 42.831 C 348.015 42.930,348.566 43.159,348.795 43.339 C 349.024 43.519,349.304 43.667,349.418 43.667 C 350.126 43.667,352.667 46.997,352.667 47.925 C 352.667 48.110,352.817 48.688,353.000 49.210 C 353.183 49.732,353.333 50.407,353.333 50.710 C 353.333 51.013,353.183 51.688,353.000 52.210 C 352.817 52.732,352.666 53.366,352.664 53.621 C 352.663 53.875,352.552 54.271,352.419 54.500 C 352.285 54.729,352.067 55.142,351.935 55.417 C 351.647 56.015,350.201 57.570,349.797 57.716 C 349.218 57.924,349.417 60.167,350.014 60.167 C 350.098 60.167,350.167 60.269,350.167 60.393 C 350.167 60.518,350.353 60.895,350.581 61.231 C 350.809 61.567,351.041 62.022,351.096 62.242 C 351.151 62.462,351.340 62.772,351.515 62.930 C 351.690 63.089,351.833 63.342,351.833 63.493 C 351.833 63.645,352.021 64.023,352.250 64.333 C 352.479 64.644,352.667 64.999,352.667 65.122 C 352.667 65.246,352.830 65.568,353.030 65.838 C 353.566 66.563,353.466 66.583,349.399 66.583 C 346.293 66.583,345.710 66.620,345.955 66.800 C 346.413 67.136,353.452 67.014,353.669 66.667 C 353.860 66.362,353.742 65.897,353.327 65.308 C 353.155 65.065,352.967 64.677,352.909 64.446 C 352.851 64.214,352.660 63.895,352.485 63.736 C 352.310 63.578,352.167 63.325,352.167 63.173 C 352.167 63.022,351.979 62.644,351.750 62.333 C 351.521 62.023,351.333 61.681,351.333 61.573 C 351.333 61.466,351.194 61.199,351.023 60.981 C 350.852 60.762,350.654 60.396,350.583 60.167 C 350.512 59.938,350.314 59.571,350.144 59.353 C 349.719 58.809,349.747 58.223,350.208 57.985 C 350.700 57.731,352.167 56.187,352.167 55.924 C 352.167 55.811,352.309 55.589,352.483 55.432 C 352.658 55.274,352.851 54.876,352.912 54.548 C 352.974 54.220,353.136 53.780,353.273 53.572 C 353.593 53.084,353.769 49.848,353.526 48.917 C 352.852 46.329,350.792 43.341,349.677 43.335 C 349.546 43.334,349.279 43.184,349.084 43.001 C 348.890 42.818,348.379 42.603,347.950 42.523 C 347.521 42.443,347.045 42.273,346.893 42.147 C 346.504 41.824,332.857 41.710,332.540 42.027 M359.917 42.653 C 359.169 43.129,358.392 43.821,358.596 43.827 C 358.695 43.831,358.946 43.652,359.154 43.430 C 359.362 43.208,359.751 42.937,360.016 42.827 C 360.282 42.716,360.500 42.560,360.500 42.480 C 360.500 42.284,360.492 42.287,359.917 42.653 M281.237 43.381 C 280.883 43.588,280.745 43.701,279.741 44.606 C 279.020 45.255,278.166 46.318,278.167 46.565 C 278.168 46.667,278.307 46.522,278.476 46.244 C 278.835 45.655,280.744 43.877,281.292 43.622 C 281.498 43.525,281.667 43.384,281.667 43.307 C 281.667 43.133,281.660 43.134,281.237 43.381 M357.157 45.775 C 357.065 46.018,357.013 46.290,357.043 46.380 C 357.073 46.470,357.181 46.271,357.283 45.938 C 357.498 45.239,357.406 45.121,357.157 45.775 M364.438 46.907 C 362.313 48.213,363.213 50.638,366.019 51.170 C 366.467 51.255,367.039 51.430,367.292 51.558 C 367.544 51.686,368.176 51.843,368.697 51.906 C 369.217 51.969,369.731 52.127,369.838 52.256 C 369.946 52.385,370.307 52.541,370.642 52.602 C 370.976 52.663,371.449 52.852,371.692 53.023 C 371.936 53.194,372.211 53.333,372.303 53.333 C 372.663 53.333,374.954 55.426,375.101 55.889 C 375.163 56.084,375.355 56.435,375.528 56.669 C 376.115 57.463,376.104 62.460,375.514 62.825 C 375.423 62.881,375.248 63.164,375.127 63.454 C 374.626 64.645,372.493 66.361,371.215 66.601 C 370.870 66.666,370.286 66.855,369.918 67.022 C 369.018 67.432,364.291 67.462,363.250 67.065 C 362.883 66.925,362.321 66.742,362.000 66.659 C 361.263 66.468,359.998 65.822,359.541 65.404 C 359.348 65.228,359.091 65.004,358.970 64.907 C 358.849 64.810,358.502 64.435,358.199 64.074 C 357.896 63.712,357.727 63.580,357.824 63.780 C 358.360 64.890,360.691 66.630,362.118 66.986 C 362.466 67.073,363.050 67.258,363.417 67.398 C 364.365 67.759,369.138 67.759,370.083 67.397 C 370.450 67.257,371.087 67.064,371.500 66.969 C 371.912 66.874,372.363 66.701,372.500 66.585 C 372.637 66.469,372.975 66.259,373.250 66.120 C 376.510 64.467,377.672 59.082,375.524 55.583 C 374.985 54.706,373.293 53.167,372.867 53.167 C 372.782 53.167,372.530 53.024,372.308 52.849 C 372.086 52.675,371.570 52.443,371.161 52.333 C 370.752 52.224,370.319 52.054,370.199 51.956 C 370.080 51.858,369.517 51.683,368.949 51.568 C 368.381 51.452,367.617 51.243,367.250 51.103 C 366.883 50.963,366.389 50.845,366.151 50.841 C 365.912 50.837,365.547 50.686,365.339 50.505 C 365.131 50.324,364.821 50.132,364.650 50.078 C 364.102 49.904,363.755 48.918,363.979 48.171 C 364.317 47.044,366.665 46.327,367.511 47.093 C 367.657 47.225,367.839 47.333,367.917 47.333 C 367.994 47.333,368.197 47.460,368.369 47.616 C 368.662 47.881,368.674 47.881,368.573 47.615 C 368.197 46.636,365.602 46.191,364.438 46.907 M339.667 47.777 C 339.211 47.970,339.172 48.228,339.169 51.036 C 339.166 54.417,339.006 54.228,341.812 54.138 C 343.752 54.076,345.004 53.668,345.445 52.954 C 345.507 52.854,345.188 52.986,344.737 53.246 C 343.887 53.736,341.321 54.034,340.255 53.766 L 339.833 53.660 339.833 51.030 C 339.833 49.207,339.895 48.339,340.033 48.200 C 340.494 47.740,344.755 48.068,345.045 48.586 C 345.121 48.722,345.264 48.833,345.362 48.833 C 345.646 48.833,345.169 48.343,344.595 48.045 C 344.063 47.768,340.186 47.557,339.667 47.777 M286.192 48.347 C 285.100 48.940,283.719 50.374,283.572 51.069 C 283.512 51.352,283.340 51.722,283.190 51.892 C 282.673 52.478,282.701 55.740,283.233 56.865 C 283.471 57.369,283.667 57.836,283.667 57.902 C 283.667 58.402,285.122 59.820,286.286 60.455 C 287.913 61.342,292.243 60.923,292.930 59.812 C 293.104 59.531,292.706 59.672,292.065 60.118 C 291.075 60.808,287.592 60.808,286.602 60.118 C 286.245 59.870,285.897 59.667,285.828 59.667 C 285.665 59.667,284.667 58.736,284.667 58.584 C 284.667 58.520,284.512 58.251,284.323 57.986 C 282.739 55.761,283.234 51.438,285.290 49.531 C 286.723 48.204,290.926 47.566,291.888 48.531 C 292.193 48.836,292.809 49.080,292.941 48.948 C 292.986 48.903,292.565 48.634,292.006 48.350 C 290.523 47.596,287.576 47.595,286.192 48.347 M356.548 48.750 C 356.549 49.208,356.581 49.376,356.620 49.123 C 356.658 48.869,356.657 48.494,356.617 48.289 C 356.578 48.084,356.546 48.292,356.548 48.750 M276.956 48.447 C 276.914 48.522,276.835 48.808,276.780 49.083 C 276.681 49.581,276.682 49.580,276.932 49.022 C 277.150 48.536,277.170 48.070,276.956 48.447 M252.000 48.667 C 252.138 48.756,253.649 48.829,255.386 48.831 C 257.224 48.832,258.655 48.905,258.844 49.006 C 259.055 49.119,259.167 49.121,259.167 49.012 C 259.167 48.600,258.373 48.500,255.136 48.503 C 252.888 48.504,251.834 48.559,252.000 48.667 M345.799 49.417 C 345.863 49.692,345.917 50.329,345.917 50.833 C 345.917 51.337,345.863 51.975,345.799 52.250 L 345.680 52.750 345.916 52.250 C 346.046 51.975,346.152 51.337,346.152 50.833 C 346.152 50.329,346.046 49.692,345.916 49.417 L 345.680 48.917 345.799 49.417 M293.167 49.327 C 293.167 49.416,293.335 49.577,293.542 49.685 C 293.915 49.881,293.915 49.880,293.599 49.524 C 293.246 49.127,293.167 49.091,293.167 49.327 M294.000 50.125 C 294.000 50.205,294.109 50.415,294.242 50.593 C 294.475 50.905,294.480 50.903,294.388 50.539 C 294.293 50.163,294.000 49.850,294.000 50.125 M276.118 50.979 C 276.053 51.289,276.008 51.739,276.018 51.979 C 276.030 52.268,276.088 52.161,276.186 51.667 C 276.269 51.254,276.313 50.804,276.286 50.667 C 276.258 50.529,276.182 50.670,276.118 50.979 M294.782 51.583 C 294.837 51.858,294.942 52.233,295.014 52.417 L 295.146 52.750 295.149 52.417 C 295.150 52.233,295.046 51.858,294.916 51.583 L 294.680 51.083 294.782 51.583 M357.014 51.447 C 356.993 51.742,357.329 52.560,357.430 52.459 C 357.478 52.411,357.407 52.120,357.272 51.811 C 357.137 51.502,357.021 51.339,357.014 51.447 M357.818 53.137 C 357.919 53.327,358.084 53.532,358.184 53.594 C 358.315 53.675,358.314 53.609,358.182 53.363 C 358.081 53.173,357.916 52.968,357.816 52.906 C 357.685 52.825,357.686 52.891,357.818 53.137 M359.583 54.937 C 359.858 55.170,360.346 55.475,360.667 55.614 C 360.988 55.753,361.363 55.963,361.500 56.081 C 361.637 56.200,362.087 56.374,362.500 56.469 C 362.912 56.564,363.550 56.757,363.917 56.897 C 364.283 57.037,364.847 57.155,365.169 57.159 C 365.491 57.163,366.016 57.305,366.336 57.474 C 366.655 57.644,367.142 57.837,367.417 57.903 C 367.692 57.969,368.123 58.220,368.375 58.460 C 368.627 58.700,368.833 58.848,368.833 58.790 C 368.833 58.536,367.711 57.666,367.255 57.566 C 366.980 57.506,366.601 57.356,366.413 57.233 C 366.226 57.110,365.578 56.939,364.975 56.853 C 364.371 56.768,363.661 56.589,363.397 56.455 C 363.133 56.321,362.621 56.158,362.259 56.092 C 361.897 56.026,361.418 55.829,361.195 55.653 C 360.971 55.477,360.692 55.333,360.574 55.333 C 360.456 55.333,360.136 55.146,359.864 54.917 C 359.591 54.688,359.304 54.503,359.226 54.506 C 359.148 54.509,359.308 54.703,359.583 54.937 M294.996 56.125 C 294.994 56.194,294.925 56.540,294.842 56.895 C 294.760 57.250,294.756 57.475,294.833 57.395 C 295.008 57.215,295.242 56.000,295.102 56.000 C 295.046 56.000,294.998 56.056,294.996 56.125 M276.036 56.917 C 276.035 57.192,276.093 57.604,276.167 57.833 L 276.300 58.250 276.297 57.833 C 276.295 57.604,276.237 57.192,276.167 56.917 L 276.039 56.417 276.036 56.917 M306.090 58.610 C 306.132 59.266,306.239 59.979,306.327 60.193 C 306.499 60.611,306.469 60.276,306.160 58.333 C 306.019 57.449,306.017 57.459,306.090 58.610 M356.762 58.762 C 356.577 58.947,356.508 59.303,356.528 59.970 L 356.556 60.917 356.653 59.917 L 356.750 58.917 359.828 58.917 L 362.906 58.917 363.078 59.529 C 363.739 61.881,366.706 62.906,368.629 61.447 C 368.981 61.180,368.775 61.168,368.077 61.417 C 366.171 62.096,364.571 61.536,363.839 59.935 C 363.541 59.283,363.212 58.695,363.107 58.628 C 362.694 58.362,357.042 58.482,356.762 58.762 M369.075 59.902 C 369.079 60.397,369.140 60.766,369.208 60.724 C 369.373 60.622,369.365 59.474,369.197 59.210 C 369.124 59.096,369.070 59.404,369.075 59.902 M276.762 59.667 C 276.824 59.896,276.943 60.196,277.028 60.333 C 277.135 60.507,277.149 60.456,277.071 60.167 C 277.010 59.938,276.890 59.637,276.805 59.500 C 276.698 59.326,276.685 59.377,276.762 59.667 M342.667 60.728 C 342.667 60.939,343.148 62.000,343.244 62.000 C 343.295 62.000,343.222 61.723,343.080 61.384 C 342.819 60.758,342.667 60.517,342.667 60.728 M277.450 61.161 C 277.497 61.342,277.652 61.585,277.794 61.703 C 278.012 61.884,278.008 61.833,277.771 61.375 C 277.455 60.763,277.323 60.675,277.450 61.161 M306.762 61.333 C 306.824 61.563,306.943 61.862,307.028 62.000 C 307.135 62.174,307.149 62.123,307.071 61.833 C 307.010 61.604,306.890 61.304,306.805 61.167 C 306.698 60.993,306.685 61.044,306.762 61.333 M357.011 62.167 C 357.011 62.304,357.125 62.604,357.263 62.833 L 357.514 63.250 357.403 62.833 C 357.243 62.229,357.010 61.832,357.011 62.167 M343.530 62.614 C 343.825 63.306,344.039 63.495,343.821 62.871 C 343.718 62.575,343.566 62.291,343.482 62.239 C 343.399 62.188,343.421 62.356,343.530 62.614 M344.167 63.728 C 344.167 63.939,344.648 65.000,344.744 65.000 C 344.795 65.000,344.722 64.723,344.580 64.384 C 344.319 63.758,344.167 63.517,344.167 63.728 M345.030 65.614 C 345.325 66.306,345.539 66.495,345.321 65.871 C 345.218 65.575,345.066 65.291,344.982 65.239 C 344.899 65.188,344.921 65.356,345.030 65.614 " stroke="none" fill="#91e0f0" fill-rule="evenodd"></path></g></svg>